#!OML:ASF F:\VICON\USERDATA\INSTALL\rory3\rory3.ASF
:FULLY-SPECIFIED
:DEGREES
5085
root -2.5775 17.8312 -6.77057 7.18387 22.2478 2.13286
lowerback 9.4984 -5.86095 -3.986
upperback 0.85584 -7.98717 5.06839
thorax -3.11357 -3.91614 8.46341
lowerneck -21.2706 -7.75436 -12.8007
upperneck 15.7977 -9.1082 11.3613
head 9.62952 -3.83221 4.69557
rclavicle 3.47873e-014 -2.38542e-015
rhumerus -31.3259 9.09142 -86.0727
rradius 127.247
rwrist 20.509
rhand -22.0398 25.0904
rfingers 7.12502
rthumb 4.37033 -4.84451
lclavicle 3.47873e-014 -2.38542e-015
lhumerus 2.8165 -11.3142 84.6402
lradius 104.455
lwrist -8.32763
lhand -7.46307 6.30692
lfingers 7.12502
lthumb 18.4254 35.4543
rfemur -31.6899 1.85644 4.76972
rtibia 47.9045
rfoot -4.92243 -2.78503
rtoes 1.19832
lfemur -3.39811 7.04516 -11.6222
ltibia 34.3934
lfoot -2.66156 -16.3645
ltoes -32.4612
5086
root -2.5302 17.8529 -6.79537 6.90838 22.0905 2.02019
lowerback 9.71093 -5.88854 -3.80946
upperback 0.800802 -8.00728 5.04572
thorax -3.31338 -3.91716 8.37615
lowerneck -21.1222 -7.73041 -12.9307
upperneck 15.6311 -9.06204 11.4662
head 9.55152 -3.81366 4.76223
rclavicle 1.10723e-013 -4.6118e-014
rhumerus -31.1375 8.50961 -85.4945
rradius 126.661
rwrist 20.4767
rhand -22.1804 24.7107
rfingers 7.12502
rthumb 4.23456 -5.22697
lclavicle 1.10723e-013 -4.6118e-014
lhumerus 1.82854 -11.6849 84.8669
lradius 105.751
lwrist -8.05276
lhand -6.93523 6.18748
lfingers 7.12502
lthumb 18.9331 35.286
rfemur -31.0834 1.84816 5.40581
rtibia 48.2872
rfoot -4.82968 -3.07838
rtoes 0.255879
lfemur -3.34667 5.95301 -11.5585
ltibia 34.7789
lfoot -4.44205 -12.7735
ltoes -33.4451
5087
root -2.48152 17.8714 -6.81624 6.65741 21.9435 1.81155
lowerback 9.73569 -5.89375 -3.54188
upperback 0.808031 -7.98522 5.02613
thorax -3.36291 -3.90677 8.207
lowerneck -21.088 -7.74877 -13.0107
upperneck 15.5285 -9.08039 11.5659
head 9.52195 -3.81824 4.80711
rclavicle -4.27387e-014 1.98785e-014
rhumerus -30.5167 7.81759 -84.7528
rradius 125.913
rwrist 20.3908
rhand -22.9581 24.6257
rfingers 7.12502
rthumb 3.48353 -5.32559
lclavicle -4.27387e-014 1.98785e-014
lhumerus 0.920824 -12.3387 85.1184
lradius 107.009
lwrist -8.0808
lhand -7.14955 6.09579
lfingers 7.12502
lthumb 18.727 35.2144
rfemur -30.4796 2.01486 6.05416
rtibia 48.4771
rfoot -4.68205 -3.59314
rtoes -0.236929
lfemur -3.33282 5.04673 -11.3721
ltibia 35.2491
lfoot -6.02338 -7.69475
ltoes -33.3117
5088
root -2.43187 17.8804 -6.83431 6.51261 21.7431 1.74157
lowerback 9.63966 -5.86955 -3.44013
upperback 0.87507 -7.94377 4.97488
thorax -3.26749 -3.89281 8.07325
lowerneck -21.296 -7.79258 -12.9649
upperneck 15.4684 -9.12856 11.5886
head 9.5431 -3.82855 4.79551
rclavicle 1.98785e-015 -2.46493e-014
rhumerus -29.4942 7.09774 -83.8255
rradius 125.141
rwrist 20.128
rhand -23.0576 24.7697
rfingers 7.12502
rthumb 3.38749 -5.18311
lclavicle 1.98785e-015 -2.46493e-014
lhumerus 0.173139 -13.1002 85.3916
lradius 108.217
lwrist -8.57968
lhand -7.54727 6.17997
lfingers 7.12502
lthumb 18.3444 35.335
rfemur -29.8926 2.21153 6.50301
rtibia 48.4602
rfoot -4.41398 -3.93368
rtoes -0.877735
lfemur -3.40628 4.43697 -11.3037
ltibia 35.816
lfoot -7.19262 -3.05666
ltoes -31.799
5089
root -2.38007 17.8687 -6.85221 6.29939 21.4919 1.65165
lowerback 9.68632 -5.83966 -3.36042
upperback 0.86566 -7.89663 4.94811
thorax -3.32548 -3.86733 8.00349
lowerneck -21.4225 -7.80737 -12.9156
upperneck 15.5199 -9.14984 11.5731
head 9.58278 -3.83246 4.77706
rclavicle -1.64991e-014 1.90833e-014
rhumerus -28.516 6.44969 -82.7668
rradius 124.308
rwrist 19.9645
rhand -22.8009 24.981
rfingers 7.12502
rthumb 3.6354 -4.96775
lclavicle -1.64991e-014 1.90833e-014
lhumerus -0.827338 -13.8643 85.7675
lradius 109.588
lwrist -9.10359
lhand -7.51622 6.34577
lfingers 7.12502
lthumb 18.3743 35.498
rfemur -29.1377 2.44453 6.96247
rtibia 48.2808
rfoot -4.39646 -3.73438
rtoes 1.08098
lfemur -3.43715 3.91436 -11.1811
ltibia 36.3854
lfoot -8.24381 -0.0244711
ltoes -29.615
5090
root -2.32562 17.8433 -6.87049 6.1615 21.2735 1.59136
lowerback 9.67054 -5.8043 -3.29438
upperback 0.794666 -7.84317 4.91379
thorax -3.41372 -3.83615 7.92963
lowerneck -21.4355 -7.79802 -12.7952
upperneck 15.6385 -9.15368 11.4377
head 9.61309 -3.84013 4.70947
rclavicle -4.59193e-014 1.59028e-015
rhumerus -27.6952 5.74024 -81.6587
rradius 123.301
rwrist 19.8381
rhand -22.927 25.4065
rfingers 7.12502
rthumb 3.51358 -4.54428
lclavicle -4.59193e-014 1.59028e-015
lhumerus -2.01116 -14.7749 86.2716
lradius 111.013
lwrist -9.48924
lhand -7.64661 6.37731
lfingers 7.12502
lthumb 18.2488 35.5413
rfemur -28.3027 2.56707 7.39034
rtibia 47.8679
rfoot -4.95784 -3.04672
rtoes 5.83041
lfemur -3.53854 3.28421 -11.0814
ltibia 36.8375
lfoot -9.023 1.65009
ltoes -26.8497
5091
root -2.27017 17.8124 -6.89023 6.21114 20.9889 1.67601
lowerback 9.49128 -5.74073 -3.34346
upperback 0.70072 -7.76616 4.82607
thorax -3.43119 -3.79481 7.84116
lowerneck -21.5345 -7.77862 -12.7167
upperneck 15.8942 -9.14693 11.3691
head 9.71127 -3.83487 4.67545
rclavicle 2.62396e-014 1.11319e-014
rhumerus -26.9151 4.96338 -80.568
rradius 122.114
rwrist 19.699
rhand -23.2773 26.3058
rfingers 7.12502
rthumb 3.17531 -3.65032
lclavicle 2.62396e-014 1.11319e-014
lhumerus -3.19451 -15.769 86.8647
lradius 112.42
lwrist -9.8466
lhand -7.72038 6.51878
lfingers 7.12502
lthumb 18.1779 35.6894
rfemur -27.6111 2.61409 7.63051
rtibia 47.3203
rfoot -6.66508 -2.82185
rtoes 5.88299
lfemur -3.78124 2.83324 -11.1255
ltibia 37.1626
lfoot -9.67606 2.32325
ltoes -24.0592
5092
root -2.21541 17.7825 -6.90476 6.31929 20.582 1.71135
lowerback 9.23061 -5.64369 -3.38406
upperback 0.584227 -7.64221 4.75045
thorax -3.43352 -3.73046 7.74854
lowerneck -21.6074 -7.71718 -12.5554
upperneck 16.1524 -9.09236 11.217
head 9.79077 -3.81217 4.60626
rclavicle 9.89948e-014 -4.45278e-014
rhumerus -25.9558 4.29316 -79.421
rradius 120.859
rwrist 19.6544
rhand -24.002 26.5836
rfingers 7.12502
rthumb 2.47544 -3.38182
lclavicle 9.89948e-014 -4.45278e-014
lhumerus -4.31 -16.7553 87.5155
lradius 113.66
lwrist -10.1787
lhand -7.66008 6.35027
lfingers 7.12502
lthumb 18.2359 35.5155
rfemur -27.3367 3.26072 7.64913
rtibia 46.591
rfoot -9.74266 -4.01046
rtoes 1.65235
lfemur -4.02401 2.4278 -11.1221
ltibia 37.3025
lfoot -10.6876 2.11731
ltoes -23.4899
5093
root -2.16435 17.7341 -6.91972 6.43867 20.1413 1.74781
lowerback 8.97349 -5.53388 -3.45656
upperback 0.464178 -7.50455 4.66508
thorax -3.44036 -3.65861 7.66368
lowerneck -21.6387 -7.66814 -12.443
upperneck 16.3744 -9.05925 11.1427
head 9.86039 -3.79569 4.56969
rclavicle 8.13029e-014 -3.73715e-014
rhumerus -24.7013 3.70746 -78.2699
rradius 119.529
rwrist 19.5858
rhand -24.7182 25.6023
rfingers 7.12502
rthumb 1.78371 -4.36995
lclavicle 8.13029e-014 -3.73715e-014
lhumerus -5.34773 -17.7582 88.1485
lradius 114.73
lwrist -10.673
lhand -7.81182 5.96062
lfingers 7.12502
lthumb 18.0899 35.1394
rfemur -27.0296 3.77532 7.71537
rtibia 45.9036
rfoot -12.7299 -5.52008
rtoes -3.36943
lfemur -4.25245 1.98525 -11.0881
ltibia 37.2737
lfoot -11.7193 1.1348
ltoes -25.2343
5094
root -2.11473 17.6686 -6.93579 6.57177 19.6734 1.87376
lowerback 8.74023 -5.38717 -3.59063
upperback 0.33287 -7.32604 4.51746
thorax -3.47866 -3.56396 7.54852
lowerneck -21.5831 -7.64725 -12.3129
upperneck 16.5531 -9.0835 11.0921
head 9.90753 -3.80492 4.52967
rclavicle 1.27222e-014 2.06736e-014
rhumerus -23.4094 2.96718 -77.1765
rradius 118.087
rwrist 19.5037
rhand -25.0257 24.5653
rfingers 7.12502
rthumb 1.48672 -5.40929
lclavicle 1.27222e-014 2.06736e-014
lhumerus -6.43398 -18.8721 88.8257
lradius 115.771
lwrist -11.2528
lhand -8.13971 5.7938
lfingers 7.12502
lthumb 17.7744 35.0015
rfemur -26.7711 4.19713 7.62888
rtibia 45.3149
rfoot -13.9423 -4.9154
rtoes 0.567506
lfemur -4.44995 1.62157 -11.1141
ltibia 37.1022
lfoot -12.4173 -0.452582
ltoes -27.0903
5095
root -2.0628 17.5943 -6.95661 6.71333 19.2588 2.11313
lowerback 8.61387 -5.25357 -3.76508
upperback 0.160224 -7.17121 4.33087
thorax -3.61594 -3.47535 7.43366
lowerneck -21.5574 -7.60558 -12.2158
upperneck 16.811 -9.07514 11.0562
head 9.98636 -3.79816 4.50681
rclavicle -1.31198e-014 2.38542e-014
rhumerus -22.2111 2.22306 -76.1096
rradius 116.546
rwrist 19.4637
rhand -25.3073 24.0227
rfingers 7.12502
rthumb 1.21474 -5.95354
lclavicle -1.31198e-014 2.38542e-014
lhumerus -7.46595 -19.952 89.5974
lradius 116.664
lwrist -11.8092
lhand -8.3737 5.67618
lfingers 7.12502
lthumb 17.5492 34.9041
rfemur -26.6476 4.38026 7.34492
rtibia 44.977
rfoot -15.126 -4.45716
rtoes 0.87923
lfemur -4.65819 1.18732 -11.2755
ltibia 36.9196
lfoot -12.6 -2.12653
ltoes -27.9514
5096
root -2.00804 17.5156 -6.98398 6.85895 18.9592 2.42862
lowerback 8.58876 -5.16919 -3.88494
upperback -0.0014242 -7.08039 4.0897
thorax -3.80187 -3.4176 7.24725
lowerneck -21.6945 -7.53832 -12.0411
upperneck 17.0928 -9.02554 10.9654
head 10.0907 -3.7677 4.45624
rclavicle 4.67144e-014 -6.44062e-014
rhumerus -20.9381 1.54958 -75.1388
rradius 114.93
rwrist 19.4243
rhand -25.7848 23.4921
rfingers 7.12502
rthumb 0.75362 -6.48634
lclavicle 4.67144e-014 -6.44062e-014
lhumerus -8.37206 -21.0109 90.2867
lradius 117.559
lwrist -12.0623
lhand -8.32793 5.71277
lfingers 7.12502
lthumb 17.5933 34.9368
rfemur -26.595 4.29967 6.92199
rtibia 44.83
rfoot -16.4012 -4.4035
rtoes -0.433235
lfemur -4.96422 0.591481 -11.5673
ltibia 36.8554
lfoot -12.9 -3.37833
ltoes -30.6949
5097
root -1.95582 17.4332 -7.02631 6.81527 18.6576 2.32259
lowerback 8.81127 -5.08052 -3.59383
upperback -0.157936 -6.9408 3.96466
thorax -4.16124 -3.33517 6.97924
lowerneck -21.729 -7.4463 -11.8293
upperneck 17.1663 -8.92508 10.7838
head 10.0893 -3.72601 4.3734
rclavicle 7.39479e-014 -2.3059e-014
rhumerus -19.5026 0.873697 -74.1435
rradius 113.26
rwrist 18.9347
rhand -25.647 23.08
rfingers 7.12502
rthumb 0.886684 -6.89787
lclavicle 7.39479e-014 -2.3059e-014
lhumerus -9.2822 -22.0502 91.0253
lradius 118.506
lwrist -12.2483
lhand -8.25109 6.37979
lfingers 7.12502
lthumb 17.6672 35.5971
rfemur -26.6549 4.31245 6.87621
rtibia 44.7811
rfoot -17.5059 -4.43328
rtoes -1.83754
lfemur -5.32778 0.0551874 -11.4219
ltibia 37.0466
lfoot -14.0664 -4.54681
ltoes -34.1197
